<?xml version="1.0" encoding="UTF-8" standalone="no"?>
<!DOCTYPE svg PUBLIC "-//W3C//DTD SVG 1.1//EN" "http://www.w3.org/Graphics/SVG/1.1/DTD/svg11.dtd">
<svg width="100%" height="100%" viewBox="0 0 633 477" version="1.1" xmlns="http://www.w3.org/2000/svg" xmlns:xlink="http://www.w3.org/1999/xlink" xml:space="preserve" xmlns:serif="http://www.serif.com/" style="fill-rule:evenodd;clip-rule:evenodd;stroke-linejoin:round;stroke-miterlimit:2;">
    <g transform="matrix(1,0,0,1,-155.577711,-533.050754)">
        <g transform="matrix(0.324164,0,0,0.324164,-336.131418,282.60045)">
            <rect x="1516.852" y="772.603" width="477.043" height="477.043" style="fill:rgb(250,240,227);"/>
        </g>
        <g transform="matrix(0.324164,0,0,0.324164,-336.131418,446.00332)">
            <rect x="1516.852" y="772.603" width="477.043" height="477.043" style="fill:rgb(234,249,226);"/>
        </g>
        <g transform="matrix(0.324164,0,0,0.324164,-336.131418,604.478022)">
            <rect x="1516.852" y="772.603" width="477.043" height="477.043" style="fill:rgb(226,241,249);"/>
        </g>
        <g transform="matrix(0.324164,0,0,0.324164,-178.451513,282.60045)">
            <rect x="1516.852" y="772.603" width="477.043" height="477.043" style="fill:rgb(200,187,169);"/>
        </g>
        <g transform="matrix(0.324164,0,0,0.324164,-178.451513,446.00332)">
            <rect x="1516.852" y="772.603" width="477.043" height="477.043" style="fill:rgb(180,200,169);"/>
        </g>
        <g transform="matrix(0.324164,0,0,0.324164,-178.451513,604.478022)">
            <rect x="1516.852" y="772.603" width="477.043" height="477.043" style="fill:rgb(169,190,200);"/>
        </g>
        <g transform="matrix(0.324164,0,0,0.324164,-19.152755,282.670617)">
            <rect x="1516.852" y="772.603" width="477.043" height="477.043" style="fill:rgb(150,139,125);"/>
        </g>
        <g transform="matrix(0.324164,0,0,0.324164,-19.152755,446.073487)">
            <rect x="1516.852" y="772.603" width="477.043" height="477.043" style="fill:rgb(133,150,125);"/>
        </g>
        <g transform="matrix(0.324164,0,0,0.324164,-19.152755,604.548189)">
            <rect x="1516.852" y="772.603" width="477.043" height="477.043" style="fill:rgb(125,141,150);"/>
        </g>
        <g transform="matrix(0.324164,0,0,0.324164,141.310653,282.670617)">
            <rect x="1516.852" y="772.603" width="477.043" height="477.043" style="fill:rgb(136,112,80);"/>
        </g>
        <g transform="matrix(0.324164,0,0,0.324164,141.310653,446.073487)">
            <rect x="1516.852" y="772.603" width="477.043" height="477.043" style="fill:rgb(99,136,80);"/>
        </g>
        <g transform="matrix(0.324164,0,0,0.324164,141.310653,604.548189)">
            <rect x="1516.852" y="772.603" width="477.043" height="477.043" style="fill:rgb(80,117,136);"/>
        </g>
    </g>
</svg>
