<?xml version="1.0" encoding="UTF-8" standalone="no"?>
<!DOCTYPE svg PUBLIC "-//W3C//DTD SVG 1.1//EN" "http://www.w3.org/Graphics/SVG/1.1/DTD/svg11.dtd">
<svg width="100%" height="100%" viewBox="0 0 620 163" version="1.1" xmlns="http://www.w3.org/2000/svg" xmlns:xlink="http://www.w3.org/1999/xlink" xml:space="preserve" xmlns:serif="http://www.serif.com/" style="fill-rule:evenodd;clip-rule:evenodd;stroke-linejoin:round;stroke-miterlimit:2;">
    <g transform="matrix(1,0,0,1,-795.472974,-295.870535)">
        <g transform="matrix(1.333333,0,0,1.333333,0,0)">
            <g transform="matrix(41.483,0,0,41.483,900.1943,253.9375)">
                <path d="M0.094,-0L0.094,-0.7L0.201,-0.7L0.507,-0.189L0.451,-0.189L0.752,-0.7L0.859,-0.7L0.86,-0L0.737,-0L0.736,-0.507L0.762,-0.507L0.506,-0.08L0.448,-0.08L0.188,-0.507L0.218,-0.507L0.218,-0L0.094,-0Z" style="fill:rgb(155,131,100);fill-rule:nonzero;"/>
            </g>
            <g transform="matrix(41.483,0,0,41.483,939.810565,253.9375)">
                <path d="M0.333,0.007C0.274,0.007 0.222,-0.005 0.177,-0.029C0.133,-0.052 0.099,-0.085 0.074,-0.126C0.05,-0.167 0.038,-0.214 0.038,-0.267C0.038,-0.32 0.049,-0.367 0.073,-0.408C0.097,-0.45 0.13,-0.482 0.172,-0.505C0.213,-0.529 0.261,-0.54 0.314,-0.54C0.366,-0.54 0.412,-0.529 0.453,-0.506C0.494,-0.483 0.526,-0.451 0.549,-0.41C0.572,-0.369 0.584,-0.32 0.584,-0.264C0.584,-0.258 0.584,-0.253 0.584,-0.246C0.583,-0.239 0.583,-0.233 0.582,-0.227L0.137,-0.227L0.137,-0.31L0.516,-0.31L0.467,-0.284C0.467,-0.314 0.461,-0.341 0.448,-0.365C0.435,-0.388 0.417,-0.406 0.394,-0.42C0.371,-0.433 0.344,-0.44 0.314,-0.44C0.284,-0.44 0.257,-0.433 0.234,-0.42C0.21,-0.406 0.192,-0.388 0.179,-0.364C0.167,-0.34 0.16,-0.313 0.16,-0.281L0.16,-0.261C0.16,-0.229 0.167,-0.201 0.182,-0.176C0.197,-0.152 0.217,-0.133 0.244,-0.119C0.27,-0.105 0.301,-0.099 0.336,-0.099C0.366,-0.099 0.393,-0.103 0.417,-0.113C0.441,-0.123 0.462,-0.137 0.481,-0.157L0.548,-0.08C0.524,-0.052 0.494,-0.03 0.457,-0.016C0.421,-0.001 0.379,0.007 0.333,0.007Z" style="fill:rgb(155,131,100);fill-rule:nonzero;"/>
            </g>
            <g transform="matrix(41.483,0,0,41.483,965.612991,253.9375)">
                <rect x="0.082" y="-0.742" width="0.125" height="0.742" style="fill:rgb(155,131,100);fill-rule:nonzero;"/>
            </g>
            <g transform="matrix(41.483,0,0,41.483,977.601578,253.9375)">
                <path d="M0.082,-0L0.082,-0.534L0.207,-0.534L0.207,-0L0.082,-0ZM0.145,-0.622C0.122,-0.622 0.102,-0.63 0.087,-0.644C0.072,-0.658 0.065,-0.676 0.065,-0.697C0.065,-0.718 0.072,-0.736 0.087,-0.751C0.102,-0.765 0.122,-0.772 0.145,-0.772C0.168,-0.772 0.188,-0.765 0.203,-0.752C0.218,-0.738 0.225,-0.721 0.225,-0.7C0.225,-0.678 0.218,-0.659 0.203,-0.645C0.188,-0.63 0.169,-0.622 0.145,-0.622Z" style="fill:rgb(155,131,100);fill-rule:nonzero;"/>
            </g>
            <g transform="matrix(41.483,0,0,41.483,989.590165,253.9375)">
                <path d="M0.247,0.007C0.203,0.007 0.16,0.001 0.119,-0.011C0.078,-0.022 0.045,-0.036 0.021,-0.053L0.069,-0.148C0.093,-0.132 0.122,-0.12 0.155,-0.11C0.188,-0.1 0.222,-0.095 0.255,-0.095C0.295,-0.095 0.323,-0.1 0.341,-0.111C0.358,-0.121 0.367,-0.136 0.367,-0.154C0.367,-0.169 0.361,-0.18 0.349,-0.188C0.337,-0.195 0.321,-0.201 0.302,-0.205C0.282,-0.209 0.261,-0.213 0.237,-0.216C0.214,-0.219 0.19,-0.224 0.167,-0.23C0.143,-0.235 0.122,-0.244 0.102,-0.254C0.083,-0.265 0.067,-0.28 0.055,-0.299C0.043,-0.318 0.037,-0.343 0.037,-0.373C0.037,-0.407 0.047,-0.436 0.066,-0.461C0.085,-0.486 0.112,-0.506 0.147,-0.52C0.182,-0.534 0.224,-0.54 0.272,-0.54C0.308,-0.54 0.344,-0.536 0.381,-0.528C0.418,-0.52 0.448,-0.508 0.472,-0.494L0.424,-0.399C0.399,-0.414 0.374,-0.425 0.348,-0.43C0.322,-0.436 0.296,-0.439 0.271,-0.439C0.233,-0.439 0.205,-0.433 0.187,-0.422C0.168,-0.411 0.159,-0.396 0.159,-0.379C0.159,-0.363 0.165,-0.351 0.177,-0.343C0.189,-0.335 0.205,-0.329 0.224,-0.324C0.244,-0.32 0.265,-0.316 0.289,-0.312C0.312,-0.309 0.336,-0.305 0.359,-0.299C0.383,-0.293 0.404,-0.285 0.424,-0.274C0.443,-0.264 0.459,-0.249 0.471,-0.231C0.483,-0.212 0.489,-0.188 0.489,-0.158C0.489,-0.124 0.479,-0.095 0.459,-0.071C0.44,-0.046 0.412,-0.027 0.376,-0.014C0.34,-0 0.297,0.007 0.247,0.007Z" style="fill:rgb(155,131,100);fill-rule:nonzero;"/>
            </g>
            <g transform="matrix(41.483,0,0,41.483,1010.95391,253.9375)">
                <path d="M0.247,0.007C0.203,0.007 0.16,0.001 0.119,-0.011C0.078,-0.022 0.045,-0.036 0.021,-0.053L0.069,-0.148C0.093,-0.132 0.122,-0.12 0.155,-0.11C0.188,-0.1 0.222,-0.095 0.255,-0.095C0.295,-0.095 0.323,-0.1 0.341,-0.111C0.358,-0.121 0.367,-0.136 0.367,-0.154C0.367,-0.169 0.361,-0.18 0.349,-0.188C0.337,-0.195 0.321,-0.201 0.302,-0.205C0.282,-0.209 0.261,-0.213 0.237,-0.216C0.214,-0.219 0.19,-0.224 0.167,-0.23C0.143,-0.235 0.122,-0.244 0.102,-0.254C0.083,-0.265 0.067,-0.28 0.055,-0.299C0.043,-0.318 0.037,-0.343 0.037,-0.373C0.037,-0.407 0.047,-0.436 0.066,-0.461C0.085,-0.486 0.112,-0.506 0.147,-0.52C0.182,-0.534 0.224,-0.54 0.272,-0.54C0.308,-0.54 0.344,-0.536 0.381,-0.528C0.418,-0.52 0.448,-0.508 0.472,-0.494L0.424,-0.399C0.399,-0.414 0.374,-0.425 0.348,-0.43C0.322,-0.436 0.296,-0.439 0.271,-0.439C0.233,-0.439 0.205,-0.433 0.187,-0.422C0.168,-0.411 0.159,-0.396 0.159,-0.379C0.159,-0.363 0.165,-0.351 0.177,-0.343C0.189,-0.335 0.205,-0.329 0.224,-0.324C0.244,-0.32 0.265,-0.316 0.289,-0.312C0.312,-0.309 0.336,-0.305 0.359,-0.299C0.383,-0.293 0.404,-0.285 0.424,-0.274C0.443,-0.264 0.459,-0.249 0.471,-0.231C0.483,-0.212 0.489,-0.188 0.489,-0.158C0.489,-0.124 0.479,-0.095 0.459,-0.071C0.44,-0.046 0.412,-0.027 0.376,-0.014C0.34,-0 0.297,0.007 0.247,0.007Z" style="fill:rgb(155,131,100);fill-rule:nonzero;"/>
            </g>
            <g transform="matrix(41.483,0,0,41.483,1032.317655,253.9375)">
                <path d="M0.411,-0L0.411,-0.108L0.404,-0.131L0.404,-0.32C0.404,-0.357 0.393,-0.385 0.371,-0.405C0.349,-0.426 0.315,-0.436 0.271,-0.436C0.241,-0.436 0.211,-0.431 0.183,-0.422C0.154,-0.413 0.129,-0.4 0.109,-0.383L0.06,-0.474C0.089,-0.496 0.123,-0.512 0.163,-0.524C0.202,-0.535 0.244,-0.54 0.286,-0.54C0.363,-0.54 0.423,-0.522 0.466,-0.485C0.508,-0.448 0.529,-0.391 0.529,-0.313L0.529,-0L0.411,-0ZM0.243,0.007C0.203,0.007 0.168,-0 0.138,-0.014C0.108,-0.027 0.084,-0.046 0.068,-0.071C0.052,-0.095 0.044,-0.122 0.044,-0.153C0.044,-0.183 0.051,-0.21 0.066,-0.234C0.08,-0.258 0.104,-0.277 0.136,-0.291C0.169,-0.305 0.212,-0.312 0.266,-0.312L0.421,-0.312L0.421,-0.229L0.275,-0.229C0.232,-0.229 0.204,-0.222 0.189,-0.208C0.174,-0.195 0.167,-0.178 0.167,-0.158C0.167,-0.135 0.176,-0.117 0.194,-0.104C0.212,-0.091 0.237,-0.084 0.269,-0.084C0.3,-0.084 0.327,-0.091 0.352,-0.105C0.376,-0.119 0.394,-0.139 0.404,-0.167L0.425,-0.092C0.413,-0.06 0.392,-0.036 0.361,-0.019C0.33,-0.002 0.291,0.007 0.243,0.007Z" style="fill:rgb(155,131,100);fill-rule:nonzero;"/>
            </g>
        </g>
        <g transform="matrix(1.333333,0,0,1.333333,0,0)">
            <g transform="matrix(41.483,0,0,41.483,900.1943,298.73914)">
                <path d="M0.094,-0L0.094,-0.7L0.422,-0.7C0.506,-0.7 0.57,-0.684 0.614,-0.651C0.658,-0.618 0.68,-0.574 0.68,-0.518C0.68,-0.481 0.671,-0.449 0.654,-0.422C0.637,-0.396 0.614,-0.376 0.585,-0.361C0.556,-0.347 0.524,-0.34 0.49,-0.34L0.508,-0.376C0.548,-0.376 0.583,-0.369 0.614,-0.354C0.645,-0.34 0.67,-0.319 0.688,-0.292C0.707,-0.264 0.716,-0.23 0.716,-0.19C0.716,-0.13 0.693,-0.084 0.647,-0.05C0.601,-0.017 0.533,-0 0.442,-0L0.094,-0ZM0.224,-0.102L0.434,-0.102C0.483,-0.102 0.52,-0.11 0.546,-0.126C0.572,-0.142 0.585,-0.168 0.585,-0.203C0.585,-0.237 0.572,-0.263 0.546,-0.279C0.52,-0.296 0.483,-0.304 0.434,-0.304L0.214,-0.304L0.214,-0.405L0.408,-0.405C0.453,-0.405 0.488,-0.413 0.512,-0.429C0.537,-0.445 0.549,-0.469 0.549,-0.501C0.549,-0.534 0.537,-0.558 0.512,-0.574C0.488,-0.59 0.453,-0.598 0.408,-0.598L0.224,-0.598L0.224,-0.102Z" style="fill:rgb(155,131,100);fill-rule:nonzero;"/>
            </g>
            <g transform="matrix(41.483,0,0,41.483,931.762863,298.73914)">
                <path d="M0.333,0.007C0.274,0.007 0.222,-0.005 0.177,-0.029C0.133,-0.052 0.099,-0.085 0.074,-0.126C0.05,-0.167 0.038,-0.214 0.038,-0.267C0.038,-0.32 0.049,-0.367 0.073,-0.408C0.097,-0.45 0.13,-0.482 0.172,-0.505C0.213,-0.529 0.261,-0.54 0.314,-0.54C0.366,-0.54 0.412,-0.529 0.453,-0.506C0.494,-0.483 0.526,-0.451 0.549,-0.41C0.572,-0.369 0.584,-0.32 0.584,-0.264C0.584,-0.258 0.584,-0.253 0.584,-0.246C0.583,-0.239 0.583,-0.233 0.582,-0.227L0.137,-0.227L0.137,-0.31L0.516,-0.31L0.467,-0.284C0.467,-0.314 0.461,-0.341 0.448,-0.365C0.435,-0.388 0.417,-0.406 0.394,-0.42C0.371,-0.433 0.344,-0.44 0.314,-0.44C0.284,-0.44 0.257,-0.433 0.234,-0.42C0.21,-0.406 0.192,-0.388 0.179,-0.364C0.167,-0.34 0.16,-0.313 0.16,-0.281L0.16,-0.261C0.16,-0.229 0.167,-0.201 0.182,-0.176C0.197,-0.152 0.217,-0.133 0.244,-0.119C0.27,-0.105 0.301,-0.099 0.336,-0.099C0.366,-0.099 0.393,-0.103 0.417,-0.113C0.441,-0.123 0.462,-0.137 0.481,-0.157L0.548,-0.08C0.524,-0.052 0.494,-0.03 0.457,-0.016C0.421,-0.001 0.379,0.007 0.333,0.007Z" style="fill:rgb(155,131,100);fill-rule:nonzero;"/>
            </g>
            <g transform="matrix(41.483,0,0,41.483,957.565289,298.73914)">
                <path d="M0.082,-0L0.082,-0.534L0.201,-0.534L0.201,-0.39L0.18,-0.434C0.199,-0.468 0.226,-0.495 0.261,-0.513C0.297,-0.531 0.338,-0.54 0.385,-0.54C0.428,-0.54 0.466,-0.532 0.5,-0.515C0.533,-0.499 0.559,-0.473 0.579,-0.439C0.598,-0.404 0.608,-0.36 0.608,-0.306L0.608,-0L0.483,-0L0.483,-0.29C0.483,-0.337 0.472,-0.372 0.45,-0.396C0.427,-0.419 0.396,-0.431 0.356,-0.431C0.327,-0.431 0.301,-0.425 0.278,-0.413C0.255,-0.401 0.238,-0.383 0.226,-0.359C0.213,-0.336 0.207,-0.306 0.207,-0.27L0.207,-0L0.082,-0Z" style="fill:rgb(155,131,100);fill-rule:nonzero;"/>
            </g>
            <g transform="matrix(41.483,0,0,41.483,985.981144,298.73914)">
                <path d="M0.082,-0L0.082,-0.534L0.207,-0.534L0.207,-0L0.082,-0ZM0.145,-0.622C0.122,-0.622 0.102,-0.63 0.087,-0.644C0.072,-0.658 0.065,-0.676 0.065,-0.697C0.065,-0.718 0.072,-0.736 0.087,-0.751C0.102,-0.765 0.122,-0.772 0.145,-0.772C0.168,-0.772 0.188,-0.765 0.203,-0.752C0.218,-0.738 0.225,-0.721 0.225,-0.7C0.225,-0.678 0.218,-0.659 0.203,-0.645C0.188,-0.63 0.169,-0.622 0.145,-0.622Z" style="fill:rgb(155,131,100);fill-rule:nonzero;"/>
            </g>
            <g transform="matrix(41.483,0,0,41.483,997.969731,298.73914)">
                <path d="M0.283,0.007C0.224,0.007 0.179,-0.009 0.147,-0.039C0.115,-0.069 0.099,-0.114 0.099,-0.173L0.099,-0.652L0.224,-0.652L0.224,-0.176C0.224,-0.15 0.23,-0.131 0.243,-0.117C0.256,-0.103 0.275,-0.096 0.298,-0.096C0.326,-0.096 0.349,-0.103 0.368,-0.118L0.403,-0.029C0.388,-0.017 0.37,-0.008 0.349,-0.002C0.327,0.004 0.305,0.007 0.283,0.007ZM0.011,-0.434L0.011,-0.534L0.367,-0.534L0.367,-0.434L0.011,-0.434Z" style="fill:rgb(155,131,100);fill-rule:nonzero;"/>
            </g>
            <g transform="matrix(41.483,0,0,41.483,1014.811829,298.73914)">
                <path d="M0.333,0.007C0.274,0.007 0.222,-0.005 0.177,-0.029C0.133,-0.052 0.099,-0.085 0.074,-0.126C0.05,-0.167 0.038,-0.214 0.038,-0.267C0.038,-0.32 0.049,-0.367 0.073,-0.408C0.097,-0.45 0.13,-0.482 0.172,-0.505C0.213,-0.529 0.261,-0.54 0.314,-0.54C0.366,-0.54 0.412,-0.529 0.453,-0.506C0.494,-0.483 0.526,-0.451 0.549,-0.41C0.572,-0.369 0.584,-0.32 0.584,-0.264C0.584,-0.258 0.584,-0.253 0.584,-0.246C0.583,-0.239 0.583,-0.233 0.582,-0.227L0.137,-0.227L0.137,-0.31L0.516,-0.31L0.467,-0.284C0.467,-0.314 0.461,-0.341 0.448,-0.365C0.435,-0.388 0.417,-0.406 0.394,-0.42C0.371,-0.433 0.344,-0.44 0.314,-0.44C0.284,-0.44 0.257,-0.433 0.234,-0.42C0.21,-0.406 0.192,-0.388 0.179,-0.364C0.167,-0.34 0.16,-0.313 0.16,-0.281L0.16,-0.261C0.16,-0.229 0.167,-0.201 0.182,-0.176C0.197,-0.152 0.217,-0.133 0.244,-0.119C0.27,-0.105 0.301,-0.099 0.336,-0.099C0.366,-0.099 0.393,-0.103 0.417,-0.113C0.441,-0.123 0.462,-0.137 0.481,-0.157L0.548,-0.08C0.524,-0.052 0.494,-0.03 0.457,-0.016C0.421,-0.001 0.379,0.007 0.333,0.007Z" style="fill:rgb(155,131,100);fill-rule:nonzero;"/>
            </g>
            <g transform="matrix(41.483,0,0,41.483,1040.40684,298.73914)">
                <path d="M0.038,-0L0.038,-0.079L0.367,-0.477L0.39,-0.434L0.044,-0.434L0.044,-0.534L0.49,-0.534L0.49,-0.455L0.161,-0.057L0.136,-0.1L0.499,-0.1L0.499,-0L0.038,-0Z" style="fill:rgb(155,131,100);fill-rule:nonzero;"/>
            </g>
        </g>
        <g transform="matrix(1.333333,0,0,1.333333,0,0)">
            <g transform="matrix(41.483,0,0,41.483,900.1943,343.54078)">
                <path d="M0.307,0.006C0.255,0.006 0.205,-0.002 0.157,-0.019C0.11,-0.036 0.073,-0.058 0.047,-0.085L0.076,-0.142C0.101,-0.118 0.134,-0.098 0.176,-0.081C0.217,-0.065 0.261,-0.057 0.307,-0.057C0.351,-0.057 0.387,-0.062 0.414,-0.073C0.442,-0.084 0.462,-0.099 0.475,-0.118C0.489,-0.137 0.495,-0.158 0.495,-0.18C0.495,-0.208 0.487,-0.23 0.472,-0.246C0.456,-0.263 0.436,-0.276 0.41,-0.286C0.385,-0.296 0.356,-0.304 0.326,-0.311C0.295,-0.318 0.265,-0.326 0.234,-0.335C0.203,-0.343 0.175,-0.354 0.15,-0.368C0.124,-0.382 0.103,-0.4 0.088,-0.424C0.072,-0.447 0.064,-0.477 0.064,-0.514C0.064,-0.548 0.074,-0.58 0.092,-0.609C0.11,-0.638 0.138,-0.662 0.176,-0.68C0.214,-0.698 0.262,-0.706 0.322,-0.706C0.361,-0.706 0.4,-0.701 0.439,-0.69C0.478,-0.679 0.511,-0.663 0.539,-0.644L0.514,-0.585C0.484,-0.605 0.453,-0.62 0.419,-0.629C0.385,-0.638 0.353,-0.643 0.322,-0.643C0.279,-0.643 0.244,-0.637 0.217,-0.626C0.189,-0.614 0.169,-0.599 0.156,-0.58C0.144,-0.561 0.137,-0.54 0.137,-0.516C0.137,-0.489 0.145,-0.467 0.161,-0.45C0.176,-0.434 0.197,-0.421 0.222,-0.411C0.248,-0.401 0.276,-0.393 0.307,-0.386C0.337,-0.378 0.368,-0.37 0.399,-0.362C0.429,-0.353 0.457,-0.342 0.483,-0.329C0.508,-0.315 0.529,-0.297 0.544,-0.274C0.56,-0.251 0.568,-0.221 0.568,-0.185C0.568,-0.151 0.559,-0.119 0.54,-0.09C0.522,-0.061 0.493,-0.038 0.454,-0.02C0.416,-0.002 0.367,0.006 0.307,0.006Z" style="fill:rgb(155,131,100);fill-rule:nonzero;"/>
            </g>
            <g transform="matrix(41.483,0,0,41.483,925.706345,343.54078)">
                <path d="M0.265,0.005C0.216,0.005 0.178,-0.009 0.151,-0.035C0.124,-0.062 0.111,-0.1 0.111,-0.148L0.111,-0.641L0.182,-0.641L0.182,-0.152C0.182,-0.121 0.19,-0.097 0.205,-0.081C0.221,-0.064 0.243,-0.056 0.273,-0.056C0.304,-0.056 0.33,-0.065 0.351,-0.083L0.376,-0.032C0.362,-0.019 0.345,-0.01 0.326,-0.004C0.306,0.002 0.286,0.005 0.265,0.005ZM0.017,-0.466L0.017,-0.525L0.342,-0.525L0.342,-0.466L0.017,-0.466Z" style="fill:rgb(155,131,100);fill-rule:nonzero;"/>
            </g>
            <g transform="matrix(41.483,0,0,41.483,942.548443,343.54078)">
                <path d="M0.316,0.005C0.271,0.005 0.232,-0.004 0.199,-0.02C0.165,-0.037 0.14,-0.062 0.121,-0.095C0.103,-0.129 0.094,-0.17 0.094,-0.221L0.094,-0.525L0.165,-0.525L0.165,-0.228C0.165,-0.172 0.179,-0.13 0.206,-0.102C0.234,-0.073 0.273,-0.059 0.323,-0.059C0.36,-0.059 0.392,-0.067 0.418,-0.082C0.445,-0.097 0.466,-0.119 0.48,-0.147C0.495,-0.176 0.502,-0.21 0.502,-0.25L0.502,-0.525L0.573,-0.525L0.573,-0L0.505,-0L0.505,-0.144L0.516,-0.118C0.5,-0.079 0.474,-0.049 0.439,-0.028C0.404,-0.006 0.363,0.005 0.316,0.005Z" style="fill:rgb(155,131,100);fill-rule:nonzero;"/>
            </g>
            <g transform="matrix(41.483,0,0,41.483,970.425019,343.54078)">
                <path d="M0.308,0.005C0.258,0.005 0.214,-0.007 0.174,-0.029C0.134,-0.052 0.103,-0.083 0.08,-0.123C0.057,-0.163 0.046,-0.21 0.046,-0.263C0.046,-0.316 0.057,-0.363 0.08,-0.403C0.103,-0.443 0.134,-0.474 0.174,-0.496C0.214,-0.519 0.258,-0.53 0.308,-0.53C0.354,-0.53 0.395,-0.52 0.431,-0.499C0.468,-0.478 0.497,-0.448 0.519,-0.408C0.54,-0.369 0.551,-0.32 0.551,-0.263C0.551,-0.206 0.541,-0.158 0.519,-0.118C0.498,-0.078 0.469,-0.047 0.433,-0.027C0.396,-0.006 0.355,0.005 0.308,0.005ZM0.314,-0.058C0.351,-0.058 0.384,-0.066 0.414,-0.084C0.443,-0.101 0.466,-0.125 0.484,-0.156C0.501,-0.187 0.509,-0.222 0.509,-0.263C0.509,-0.304 0.501,-0.34 0.484,-0.371C0.466,-0.401 0.443,-0.425 0.414,-0.442C0.384,-0.459 0.351,-0.468 0.314,-0.468C0.276,-0.468 0.243,-0.459 0.214,-0.442C0.184,-0.425 0.161,-0.401 0.144,-0.371C0.126,-0.34 0.118,-0.304 0.118,-0.263C0.118,-0.222 0.126,-0.187 0.144,-0.156C0.161,-0.125 0.184,-0.101 0.214,-0.084C0.243,-0.066 0.276,-0.058 0.314,-0.058ZM0.511,-0L0.511,-0.158L0.518,-0.264L0.508,-0.37L0.508,-0.742L0.579,-0.742L0.579,-0L0.511,-0Z" style="fill:rgb(155,131,100);fill-rule:nonzero;"/>
            </g>
            <g transform="matrix(41.483,0,0,41.483,998.550493,343.54078)">
                <path d="M0.099,-0L0.099,-0.525L0.17,-0.525L0.17,-0L0.099,-0ZM0.135,-0.641C0.12,-0.641 0.108,-0.646 0.098,-0.656C0.088,-0.666 0.083,-0.678 0.083,-0.692C0.083,-0.706 0.088,-0.718 0.098,-0.727C0.108,-0.737 0.12,-0.742 0.135,-0.742C0.15,-0.742 0.162,-0.737 0.172,-0.728C0.182,-0.719 0.187,-0.707 0.187,-0.693C0.187,-0.679 0.182,-0.666 0.172,-0.656C0.163,-0.646 0.15,-0.641 0.135,-0.641Z" style="fill:rgb(155,131,100);fill-rule:nonzero;"/>
            </g>
            <g transform="matrix(41.483,0,0,41.483,1009.70942,343.54078)">
                <path d="M0.314,0.005C0.262,0.005 0.217,-0.007 0.176,-0.03C0.136,-0.053 0.104,-0.084 0.081,-0.125C0.058,-0.165 0.046,-0.211 0.046,-0.263C0.046,-0.315 0.058,-0.362 0.081,-0.402C0.105,-0.442 0.136,-0.473 0.176,-0.496C0.216,-0.519 0.262,-0.53 0.314,-0.53C0.365,-0.53 0.411,-0.519 0.451,-0.496C0.492,-0.473 0.523,-0.442 0.546,-0.402C0.569,-0.362 0.581,-0.316 0.581,-0.263C0.581,-0.211 0.569,-0.165 0.546,-0.125C0.523,-0.084 0.492,-0.053 0.451,-0.03C0.411,-0.007 0.365,0.005 0.314,0.005ZM0.314,-0.058C0.351,-0.058 0.385,-0.066 0.414,-0.084C0.444,-0.101 0.467,-0.125 0.484,-0.156C0.501,-0.187 0.509,-0.222 0.509,-0.263C0.509,-0.304 0.501,-0.34 0.484,-0.371C0.467,-0.401 0.444,-0.425 0.414,-0.442C0.385,-0.459 0.351,-0.468 0.314,-0.468C0.276,-0.468 0.243,-0.459 0.214,-0.442C0.184,-0.425 0.161,-0.401 0.144,-0.371C0.126,-0.34 0.118,-0.304 0.118,-0.263C0.118,-0.222 0.126,-0.187 0.144,-0.156C0.161,-0.125 0.184,-0.101 0.214,-0.084C0.243,-0.066 0.276,-0.058 0.314,-0.058Z" style="fill:rgb(155,131,100);fill-rule:nonzero;"/>
            </g>
        </g>
        <g transform="matrix(1.333333,0,0,1.333333,0,0)">
            <g transform="matrix(1,0,0,1,730.4855,343.5747)">
                <path d="M0,-120.417L0,0L-13.374,0L-13.374,-13.391L-13.324,-13.391L-13.324,-113.016C-13.341,-113.05 -13.358,-113.033 -13.374,-113.016C-22.451,-111.407 -31.577,-107.325 -40.172,-101.136L-40.172,0L-53.546,0L-53.546,-13.391L-53.497,-13.391L-53.497,-89.487C-61.893,-80.676 -69.31,-69.758 -75.084,-57.197C-76.462,-54.177 -77.789,-50.991 -79,-47.689L-79.316,-46.81C-80.527,-43.508 -81.605,-40.222 -82.485,-37.036C-84.725,-29.038 -86.135,-21.09 -86.749,-13.391C-86.998,-10.321 -87.114,-7.301 -87.114,-4.331C-87.114,-2.871 -87.081,-1.427 -87.015,0L-93.602,0C-93.801,-4.364 -93.719,-8.844 -93.37,-13.391C-92.756,-21.687 -91.279,-30.233 -88.873,-38.828C-87.927,-42.246 -86.799,-45.681 -85.555,-49.083L-85.223,-49.979C-83.978,-53.397 -82.601,-56.732 -81.124,-59.968C-76.08,-70.936 -69.824,-80.743 -62.722,-89.106C-59.785,-92.574 -56.699,-95.809 -53.497,-98.746L-53.497,-113.016C-53.513,-113.05 -53.53,-113.033 -53.546,-113.016C-65.493,-110.893 -77.523,-104.488 -88.326,-94.714C-98.896,-85.156 -108.287,-72.363 -115.256,-57.197C-116.634,-54.177 -117.961,-50.991 -119.172,-47.689L-119.488,-46.81C-120.699,-43.508 -121.778,-40.222 -122.657,-37.036C-124.897,-29.038 -126.307,-21.09 -126.922,-13.391C-127.17,-10.321 -127.287,-7.301 -127.287,-4.331C-127.287,-2.871 -127.253,-1.427 -127.187,0L-133.774,0C-133.974,-4.364 -133.891,-8.844 -133.542,-13.391C-132.928,-21.687 -131.451,-30.233 -129.045,-38.828C-128.1,-42.246 -126.971,-45.681 -125.727,-49.083L-125.395,-49.979C-124.15,-53.397 -122.773,-56.732 -121.296,-59.968C-116.252,-70.936 -109.996,-80.743 -102.894,-89.106C-88.641,-105.931 -71.069,-116.916 -53.546,-119.72C-51.207,-120.118 -48.867,-120.334 -46.527,-120.417L-40.172,-120.417L-40.172,-109.1C-31.544,-114.626 -22.451,-118.26 -13.374,-119.72C-11.034,-120.118 -8.695,-120.334 -6.355,-120.417L0,-120.417Z" style="fill:rgb(155,131,100);fill-rule:nonzero;"/>
            </g>
        </g>
        <g transform="matrix(1.333333,0,0,1.333333,0,0)">
            <g transform="matrix(1,0,0,1,874.1661,236.5485)">
                <path d="M0,93.652C1.659,98.082 2.804,102.563 3.402,107.043L-116.932,107.043L-116.932,93.652L-7.102,93.652C-13.905,77.357 -28.391,61.859 -48.037,50.609C-51.389,52.418 -54.89,54.11 -58.508,55.653C-61.776,57.064 -65.145,58.342 -68.58,59.52L-69.476,59.818C-72.911,60.98 -76.379,62.009 -79.83,62.888C-92.557,66.107 -105.118,67.335 -116.932,66.754L-116.932,60.167C-105.715,60.731 -93.685,59.553 -81.456,56.45C-78.254,55.637 -74.935,54.658 -71.6,53.53L-70.704,53.231C-67.385,52.103 -64.149,50.875 -61.113,49.564C-59.088,48.701 -57.097,47.788 -55.156,46.826C-57.097,45.864 -59.088,44.951 -61.113,44.088C-64.149,42.777 -67.385,41.549 -70.704,40.421L-71.6,40.122C-74.935,38.994 -78.254,38.015 -81.456,37.202C-93.685,34.099 -105.715,32.921 -116.932,33.485L-116.932,26.897C-105.118,26.317 -92.557,27.545 -79.83,30.764C-76.379,31.643 -72.911,32.672 -69.476,33.833L-68.58,34.132C-65.145,35.31 -61.776,36.588 -58.508,37.998C-54.89,39.541 -51.389,41.234 -48.037,43.043C-28.391,31.792 -13.905,16.294 -7.102,0L-116.932,0L-116.932,-13.391L3.402,-13.391C2.804,-8.911 1.659,-4.431 0,0C-6.621,17.655 -21.289,34.447 -41.433,46.826C-21.289,59.204 -6.621,75.997 0,93.652" style="fill:rgb(155,131,100);fill-rule:nonzero;"/>
            </g>
        </g>
    </g>
</svg>
