<?xml version="1.0" encoding="UTF-8" standalone="no"?>
<!DOCTYPE svg PUBLIC "-//W3C//DTD SVG 1.1//EN" "http://www.w3.org/Graphics/SVG/1.1/DTD/svg11.dtd">
<svg width="100%" height="100%" viewBox="0 0 375 161" version="1.1" xmlns="http://www.w3.org/2000/svg" xmlns:xlink="http://www.w3.org/1999/xlink" xml:space="preserve" xmlns:serif="http://www.serif.com/" style="fill-rule:evenodd;clip-rule:evenodd;stroke-linejoin:round;stroke-miterlimit:2;">
    <g transform="matrix(1,0,0,1,-795.472974,-297.543333)">
        <g transform="matrix(1.333333,0,0,1.333333,0,0)">
            <g transform="matrix(1,0,0,1,730.4855,343.5747)">
                <path d="M0,-120.417L0,0L-13.374,0L-13.374,-13.391L-13.324,-13.391L-13.324,-113.016C-13.341,-113.05 -13.358,-113.033 -13.374,-113.016C-22.451,-111.407 -31.577,-107.325 -40.172,-101.136L-40.172,0L-53.546,0L-53.546,-13.391L-53.497,-13.391L-53.497,-89.487C-61.893,-80.676 -69.31,-69.758 -75.084,-57.197C-76.462,-54.177 -77.789,-50.991 -79,-47.689L-79.316,-46.81C-80.527,-43.508 -81.605,-40.222 -82.485,-37.036C-84.725,-29.038 -86.135,-21.09 -86.749,-13.391C-86.998,-10.321 -87.114,-7.301 -87.114,-4.331C-87.114,-2.871 -87.081,-1.427 -87.015,0L-93.602,0C-93.801,-4.364 -93.719,-8.844 -93.37,-13.391C-92.756,-21.687 -91.279,-30.233 -88.873,-38.828C-87.927,-42.246 -86.799,-45.681 -85.555,-49.083L-85.223,-49.979C-83.978,-53.397 -82.601,-56.732 -81.124,-59.968C-76.08,-70.936 -69.824,-80.743 -62.722,-89.106C-59.785,-92.574 -56.699,-95.809 -53.497,-98.746L-53.497,-113.016C-53.513,-113.05 -53.53,-113.033 -53.546,-113.016C-65.493,-110.893 -77.523,-104.488 -88.326,-94.714C-98.896,-85.156 -108.287,-72.363 -115.256,-57.197C-116.634,-54.177 -117.961,-50.991 -119.172,-47.689L-119.488,-46.81C-120.699,-43.508 -121.778,-40.222 -122.657,-37.036C-124.897,-29.038 -126.307,-21.09 -126.922,-13.391C-127.17,-10.321 -127.287,-7.301 -127.287,-4.331C-127.287,-2.871 -127.253,-1.427 -127.187,0L-133.774,0C-133.974,-4.364 -133.891,-8.844 -133.542,-13.391C-132.928,-21.687 -131.451,-30.233 -129.045,-38.828C-128.1,-42.246 -126.971,-45.681 -125.727,-49.083L-125.395,-49.979C-124.15,-53.397 -122.773,-56.732 -121.296,-59.968C-116.252,-70.936 -109.996,-80.743 -102.894,-89.106C-88.641,-105.931 -71.069,-116.916 -53.546,-119.72C-51.207,-120.118 -48.867,-120.334 -46.527,-120.417L-40.172,-120.417L-40.172,-109.1C-31.544,-114.626 -22.451,-118.26 -13.374,-119.72C-11.034,-120.118 -8.695,-120.334 -6.355,-120.417L0,-120.417Z" style="fill:rgb(155,131,100);fill-rule:nonzero;"/>
            </g>
        </g>
        <g transform="matrix(1.333333,0,0,1.333333,0,0)">
            <g transform="matrix(1,0,0,1,874.1661,236.5485)">
                <path d="M0,93.652C1.659,98.082 2.804,102.563 3.402,107.043L-116.932,107.043L-116.932,93.652L-7.102,93.652C-13.905,77.357 -28.391,61.859 -48.037,50.609C-51.389,52.418 -54.89,54.11 -58.508,55.653C-61.776,57.064 -65.145,58.342 -68.58,59.52L-69.476,59.818C-72.911,60.98 -76.379,62.009 -79.83,62.888C-92.557,66.107 -105.118,67.335 -116.932,66.754L-116.932,60.167C-105.715,60.731 -93.685,59.553 -81.456,56.45C-78.254,55.637 -74.935,54.658 -71.6,53.53L-70.704,53.231C-67.385,52.103 -64.149,50.875 -61.113,49.564C-59.088,48.701 -57.097,47.788 -55.156,46.826C-57.097,45.864 -59.088,44.951 -61.113,44.088C-64.149,42.777 -67.385,41.549 -70.704,40.421L-71.6,40.122C-74.935,38.994 -78.254,38.015 -81.456,37.202C-93.685,34.099 -105.715,32.921 -116.932,33.485L-116.932,26.897C-105.118,26.317 -92.557,27.545 -79.83,30.764C-76.379,31.643 -72.911,32.672 -69.476,33.833L-68.58,34.132C-65.145,35.31 -61.776,36.588 -58.508,37.998C-54.89,39.541 -51.389,41.234 -48.037,43.043C-28.391,31.792 -13.905,16.294 -7.102,0L-116.932,0L-116.932,-13.391L3.402,-13.391C2.804,-8.911 1.659,-4.431 0,0C-6.621,17.655 -21.289,34.447 -41.433,46.826C-21.289,59.204 -6.621,75.997 0,93.652" style="fill:rgb(155,131,100);fill-rule:nonzero;"/>
            </g>
        </g>
    </g>
</svg>
